<?xml version="1.0" encoding="UTF-8"?>
<svg id="Layer_2" data-name="Layer 2" xmlns="http://www.w3.org/2000/svg" viewBox="0 0 1983.92 92.56">
  <defs>
    <style>
      .cls-1 {
        fill: #f4954e;
        stroke-width: 0px;
      }
    </style>
  </defs>
  <g id="Layer_1-2" data-name="Layer 1">
    <path class="cls-1" d="m16,20.53h2c.52,1.18,1.03,2.35,1.56,3.56,2.41,4.74,5.31,8.11,9.44,11.44.63.51,1.26,1.02,1.9,1.55,9.4,6.05,23.88,4.54,34.53,2.74q3.57-.29,5.46,1.17c2.66,1.95,4.17,1.92,7.44,1.92,1.09,0,2.18.01,3.3.02,1.2,0,2.4-.01,3.64-.02q1.92,0,3.88.01c3.58.01,7.16,0,10.74,0,3.9,0,7.8,0,11.7,0,6.87.01,13.74,0,20.61,0,10.28-.01,20.57,0,30.85,0,17.52.01,35.04.01,52.57,0,17.77,0,35.53-.01,53.3,0,1.12,0,2.24,0,3.4,0,4.56,0,9.13,0,13.69,0,42.54.02,85.09.02,127.63,0q1.89,0,3.82,0c1.26,0,2.53,0,3.83,0,38.46,0,76.92,0,115.37,0,2.57,0,5.15,0,7.72,0,10.34,0,20.68,0,31.01,0,28.9,0,57.8,0,86.7,0,1.32,0,2.63,0,3.99,0,41.96,0,83.92,0,125.87,0,.68,0,1.36,0,2.06,0,22.8,0,45.6,0,68.39-.01,68.94-.01,137.88-.02,261,0,22.79,0,45.58,0,68.37.01q1.02,0,2.06,0c42.6,0,85.2,0,127.8,0,1.32,0,2.63,0,3.99,0,28.87,0,57.74,0,86.61,0,10.33,0,20.66,0,30.99,0,2.57,0,5.14,0,7.71,0,38.45,0,76.9,0,115.35,0,1.26,0,2.52,0,3.82,0,1.26,0,2.52,0,3.82,0,42.42,0,84.84,0,127.26-.01,4.55,0,9.1,0,13.65,0,1.12,0,2.23,0,3.38,0,17.72,0,35.44,0,53.16,0,17.4,0,34.81,0,52.21,0,10.22,0,20.43,0,30.65,0,6.77,0,13.55,0,20.32,0,3.85,0,7.69,0,11.54,0,4.13.01,8.25,0,12.38-.01q1.79.01,3.62.02c5.82-.04,9.81-.29,14.9-3.4q2.71.29,6,1c12.12.99,23.96,1.8,34-6,4.43-3.98,7.23-8.78,10-14,1.34,1.66,2.67,3.33,4,5q.9,1.02,1.81,2.06,1.19,1.94,1.05,3.82c-1.18,2.9-2.91,4.02-5.42,5.86-.83.61-1.65,1.23-2.5,1.86-.64.46-1.28.92-1.93,1.39,5.28-.54,9.26-1.77,14-4,1.04,1.24,2.05,2.49,3.06,3.75.57.7,1.14,1.39,1.72,2.11q1.21,2.14,1.06,4.17c-.92,2.15-2.01,3.85-3.41,5.72-.46.61-.91,1.23-1.38,1.86-.35.46-.7.92-1.06,1.39-.68-.29-1.35-.58-2.05-.88-.89-.37-1.78-.74-2.7-1.12-.88-.37-1.76-.74-2.67-1.12q-2.76-1.09-6.58-.88c.64.46,1.28.92,1.93,1.39.83.61,1.65,1.23,2.5,1.86.82.6,1.65,1.21,2.5,1.83q2.07,1.92,3.03,3.86c.06,2.96-1.1,4.41-2.77,6.81-.54.8-1.09,1.6-1.64,2.42-.51.6-1.02,1.21-1.54,1.83h-2c-.54-1.18-1.07-2.35-1.62-3.56-4.01-7.92-9.13-12.97-17.38-16.44-6.63-1.66-13.4-1.41-20.13-.45-.71.1-1.42.2-2.16.31-1.41.21-2.82.44-4.23.69q-1.98.3-5.48.45-.93-.73-1.89-1.47c-2.67-1.93-4.18-1.91-7.45-1.91q-1.64-.01-3.31-.02c-1.2,0-2.4.01-3.64.02-1.28,0-2.56,0-3.88-.01-3.58-.01-7.16,0-10.74,0-3.9,0-7.8,0-11.7,0-6.87-.01-13.74,0-20.61,0-10.28.01-20.57,0-30.85,0-17.53-.01-35.05-.01-52.58,0-17.77,0-35.54.01-53.31,0-1.12,0-2.24,0-3.4,0-4.56,0-9.13,0-13.69,0-42.55-.02-85.1-.02-127.66,0q-1.89,0-3.82,0c-1.26,0-2.53,0-3.83,0-38.46,0-76.93,0-115.39,0-2.57,0-5.15,0-7.72,0-10.34,0-20.68,0-31.02,0-28.9,0-57.81,0-86.71,0-1.32,0-2.63,0-3.99,0-41.96,0-83.92,0-125.89,0-.68,0-1.36,0-2.06,0-22.8,0-45.6,0-68.4.01-68.95.01-137.9.02-261.04,0-22.79,0-45.59,0-68.38-.01q-1.02,0-2.06,0c-42.6,0-85.21,0-127.81,0q-1.97,0-3.99,0c-28.87,0-57.74,0-86.62,0-10.33,0-20.66,0-30.99,0-2.57,0-5.14,0-7.71,0-38.46,0-76.91,0-115.37,0-1.26,0-2.52,0-3.82,0q-1.89,0-3.82,0c-42.43,0-84.85,0-127.28.01-4.55,0-9.1,0-13.65,0q-1.68,0-3.38,0c-17.73,0-35.45,0-53.18,0-17.4,0-34.81,0-52.21,0-10.22,0-20.44,0-30.66,0-6.77,0-13.55,0-20.32,0-3.85,0-7.7,0-11.55,0-4.12-.01-8.25,0-12.37.01-1.2,0-2.4-.01-3.64-.02q-1.64.01-3.31.02c-.94,0-1.88,0-2.85,0-2.93.44-4.18,1.57-6.48,3.38q-3.25-.14-7-.81c-1.35-.21-2.69-.42-4.04-.62q-1-.15-2.02-.3c-9.21-1.23-17.86-.94-25.54,4.63-5.57,4.7-9.41,9.47-12.4,16.11-3.67-3.28-5.69-6.72-8-11,1.08-1.13,2.16-2.25,3.25-3.38.6-.63,1.21-1.25,1.83-1.9,1.89-1.7,3.6-2.71,5.92-3.73-5.36.45-8.41,1.11-13,4-4.82-1.61-5.71-5.6-8-10,1.98-2.97,3.96-5.94,6-9,2.44,1.04,4.88,2.08,7.32,3.12,2.73.89,4.82,1.04,7.68.88-.89-.56-1.77-1.11-2.69-1.69-3.16-2.09-5.71-4.56-8.31-7.31,1.81-3.78,3.91-7.37,6-11Z"/>
    <path class="cls-1" d="m60,55.53c5.04,3.78,8.18,7.98,10,14q-.44,2.21-1,4c-.57-.6-1.14-1.21-1.72-1.83-6.29-6.51-11.59-11.66-21-12.34-4,.29-7.09,1.79-10.28,4.16-2.79,3.42-3.83,6.59-4,11,.89,4.19,2.04,7.17,5.31,10,4.58,1.71,8,1.17,12.69,0,.33-2.97.66-5.94,1-9l-3,2q-3.12-.25-6-1c-1.4-2.8-1.25-4.9-1-8q1-1.88,3-3c4.72-.53,6.88-.69,10.94,1.81,3.43,3.64,3.35,7.15,3.27,11.91-.45,4.83-2.29,7.49-5.9,10.59-4.52,2.3-8.47,3.33-13.43,2.21-5.64-1.93-9.65-4.39-12.7-9.65-2.21-5.9-1.85-11.76,0-17.69,3.56-6.27,7.99-9.42,14.69-11.88,6.83-1,12.93-.46,19.12,2.69Z"/>
    <path class="cls-1" d="m50.17,1.21c4.33,2.23,6.36,4.75,7.83,9.32.55,4.4.51,7.86-1.31,11.94-1.92,2.35-3.55,3.89-6.62,4.36q-5.47.03-8.06-1.43c-1.44-2.7-1.26-4.86-1-7.88l1-2q2.88-.75,6-1c.99.66,1.98,1.32,3,2q-.31-4.82-2.5-9c-3.95-1.58-7.48-1.33-11.5,0-3.38,3.63-4.9,7.04-5,12,.89,4.42,2.3,7.3,5.5,10.5,5.5,2.36,10.95,2.56,16.71.84,4.73-2.15,8.38-5.4,12.13-8.95q1.66-1.39,3.66-1.39c-2.37,8.83-6.03,13.25-14,18-6.69,2.11-13.84,1.68-20.25-1.09-4.62-2.42-7.43-5.27-9.75-9.91-1.83-6.09-2.02-12.55.69-18.38C31.61.51,40.92-1.7,50.17,1.21Z"/>
    <path class="cls-1" d="m1953.94,58.4c3.74,3.24,4.9,6.55,5.4,11.43q.14,12.42-4.34,17.7c-4.37,3.59-9.35,5.26-15,5-4.61-.89-7.46-2.51-10.94-5.69-3.1-4.98-3.54-8.84-2.44-14.56,1.69-3.39,3.09-4.85,6.38-6.75,4.02-.56,6.07-.61,9.5,1.62q1.5,2.38,1.44,5.5-.94,2.88-3.94,4.88-4.54-.54-6-2-1.29,2.92-.25,5.56t4.25,4.44q5.89.46,11-2c3.21-4.81,3.53-8.4,3-14q-1.39-2.82-3-5v-2c-5.85-2.4-10.82-4-17-2-5.18,2.5-9.05,5.83-13,10-1.31,1.03-2.64,2.04-4,3,.25-6.92,2.1-11.06,7-16,9.67-7.37,22.6-6.66,31.94.88Z"/>
    <path class="cls-1" d="m1948,.53c5.02,2.42,8.5,6,11,11,.15,2.25.22,4.5.25,6.75.03,1.21.05,2.42.08,3.67-.49,5.39-2.46,9.32-6.58,12.83-5.19,4.15-10.82,5.25-17.35,5.06-6.26-.81-11.65-3.01-15.9-7.75-2.04-2.7-3.67-5.25-4.5-8.56q.49-1.49,1-3c.97.89,1.94,1.77,2.94,2.69,6.83,5.76,12.45,9.15,21.61,8.66,4.75-.68,6.7-2.48,9.76-6.04,2.63-5.16,2.13-9.12,1-14.69q-1.1-2.72-3.38-4.06c-4.11-.79-7.84-.22-11.94.44-1.07,2.3-2.06,4.64-3,7l1,2,3-2q2.56.19,5,1,2,3,1.81,6.06-.81,2.94-3.81,4.94c-4.84.55-6.88.76-10.94-2-3.39-4.93-3.37-9.01-2.5-14.69,4.07-9.39,12.18-10.19,21.44-9.31Z"/>
  </g>
</svg>