<?xml version="1.0" encoding="UTF-8"?>
<svg version="1.1" xmlns="http://www.w3.org/2000/svg" width="79" height="92">
<path d="M0 0 C0.66 0 1.32 0 2 0 C3.32421875 1.609375 3.32421875 1.609375 4.6875 3.75 C5.14511719 4.44609375 5.60273437 5.1421875 6.07421875 5.859375 C7 8 7 8 6.78515625 10.10546875 C4.81891977 14.8498702 0.3569581 17.63479417 -4 20 C-2.58194169 19.71517632 -1.16559621 19.42181856 0.25 19.125 C1.03890625 18.96257813 1.8278125 18.80015625 2.640625 18.6328125 C5.02038186 18.09613375 5.02038186 18.09613375 7.046875 16.8671875 C9 16 9 16 11.078125 16.15234375 C13.48581767 17.21427324 14.31831402 18.37520198 15.75 20.5625 C16.17796875 21.20316406 16.6059375 21.84382813 17.046875 22.50390625 C17.51867187 23.24447266 17.51867187 23.24447266 18 24 C16.34832443 27.5786304 14.21713508 30.74820188 12 34 C11.43152344 33.79503906 10.86304687 33.59007812 10.27734375 33.37890625 C5.4915546 31.70907331 1.04056799 30.53623064 -4 30 C-3.37351563 30.40992187 -2.74703125 30.81984375 -2.1015625 31.2421875 C-0.87566406 32.05042969 -0.87566406 32.05042969 0.375 32.875 C1.18710937 33.40867188 1.99921875 33.94234375 2.8359375 34.4921875 C5 36 5 36 7 38 C6.85884889 42.94028892 3.9187003 46.2627712 1 50 C-1.72670294 47.50749241 -3.58355245 44.69137184 -5.625 41.625 C-10.10353168 35.36664519 -14.79647392 32.40117536 -22 30 C-23.35179217 29.90842921 -24.70761158 29.86933909 -26.0625 29.8671875 C-27.25033081 29.86477051 -27.25033081 29.86477051 -28.4621582 29.86230469 C-29.71838989 29.86858887 -29.71838989 29.86858887 -31 29.875 C-32.28233521 29.8735498 -32.28233521 29.8735498 -33.59057617 29.87207031 C-38.22917854 29.89140331 -42.70875225 30.12597887 -47.3125 30.75 C-51.18338451 31.19410148 -51.84740252 31.08174865 -55.5 29.125 C-56.325 28.42375 -57.15 27.7225 -58 27 C-58.99 26.67 -59.98 26.34 -61 26 C-61 25.34 -61 24.68 -61 24 C-60.15115234 23.58427734 -60.15115234 23.58427734 -59.28515625 23.16015625 C-58.55167969 22.79792969 -57.81820312 22.43570313 -57.0625 22.0625 C-56.33160156 21.70285156 -55.60070313 21.34320313 -54.84765625 20.97265625 C-53.03750973 20.13628173 -53.03750973 20.13628173 -52 19 C-49.93447717 19.09374994 -47.8718442 19.25236473 -45.8125 19.4375 C-26.18906806 21.11152917 -26.18906806 21.11152917 -8.921875 12.9609375 C-5.79842995 9.77400779 -3.6555445 6.05036831 -1.4453125 2.1953125 C-0.72988281 1.10863281 -0.72988281 1.10863281 0 0 Z " fill="#F4954E" transform="translate(61,21)"/>
<path d="M0 0 C5.39228716 2.79048378 8.98604817 7.34753393 10.9375 13.0625 C10.97875 13.866875 11.02 14.67125 11.0625 15.5 C11.145 16.593125 11.2275 17.68625 11.3125 18.8125 C10.91939736 24.61076396 9.6743047 29.44326392 5.1875 33.375 C-0.12614677 36.9882798 -4.46199263 38.30306489 -10.9375 37.5 C-15.07956545 36.03809455 -18.29425919 33.95412284 -21.0234375 30.44140625 C-22.95683994 26.33499167 -22.55443396 21.89900737 -21.9375 17.5 C-20.70213027 14.47334415 -19.73744772 13.15180925 -17.25 11.125 C-13.53283404 10.12036055 -10.71039217 10.70890971 -6.9375 11.5 C-4.9375 14.5 -4.9375 14.5 -5.25 18.125 C-5.9375 21.5 -5.9375 21.5 -6.9375 22.5 C-10.96910191 22.76293056 -12.49642734 22.79404844 -15.9375 20.5 C-15.64875 21.77875 -15.36 23.0575 -15.0625 24.375 C-14.90007813 25.09429687 -14.73765625 25.81359375 -14.5703125 26.5546875 C-14.03275572 28.70719964 -14.03275572 28.70719964 -11.9375 30.5 C-8.46827689 31.78856859 -6.90328776 31.48938241 -3.3125 30.375 C0.40084298 28.31203168 1.60282482 27.44970931 3.0625 23.5 C3.76376967 18.75766386 3.53629435 15.44758869 1.375 11.125 C-2.32250167 6.92783594 -5.04820617 5.33023196 -10.625 4.9375 C-17.77544687 5.18223256 -23.15115402 8.67312535 -28.0859375 13.6796875 C-29.30764829 15.08091498 -30.50248327 16.50635544 -31.66015625 17.9609375 C-32.08167969 18.46882813 -32.50320312 18.97671875 -32.9375 19.5 C-33.2675 19.5 -33.5975 19.5 -33.9375 19.5 C-33.43389652 12.19774959 -31.60859021 7.70810939 -26 2.75 C-18.45748235 -2.79144154 -8.72872209 -3.34922104 0 0 Z " fill="#F4954E" transform="translate(42.9375,54.5)"/>
<path d="M0 0 C4.52307209 3.08574029 6.50457381 6.97739088 7.7578125 12.19921875 C8.23993723 18.82843385 7.33342298 23.98484726 3.4453125 29.44921875 C-2.04909894 35.0714072 -6.81915618 36.33898463 -14.4921875 36.51171875 C-21.41317665 36.43421607 -25.84559237 35.26907206 -30.98828125 30.62109375 C-34.61351862 26.76112878 -36.18866559 23.36147612 -37.2421875 18.19921875 C-33.98884273 19.69845597 -31.24959974 21.58006209 -28.3671875 23.69921875 C-21.90775061 28.21894136 -17.43849048 29.74639658 -9.58203125 28.7421875 C-6.30810324 27.9824613 -4.49532762 26.66359076 -2.2421875 24.19921875 C0.29809097 19.92652423 0.29609254 16.05242104 -0.2421875 11.19921875 C-1.68727992 7.28896867 -2.92805851 6.38295457 -6.5546875 4.26171875 C-10.75658224 3.05100332 -12.39156867 3.2291347 -16.2421875 5.19921875 C-18.36726994 8.3868424 -18.7442038 10.46434098 -19.2421875 14.19921875 C-18.2521875 13.53921875 -17.2621875 12.87921875 -16.2421875 12.19921875 C-13.1796875 11.88671875 -13.1796875 11.88671875 -10.2421875 12.19921875 C-8.2421875 15.19921875 -8.2421875 15.19921875 -8.3671875 18.76171875 C-9.2421875 22.19921875 -9.2421875 22.19921875 -10.8671875 23.69921875 C-14.30602972 24.42318553 -16.84100288 24.0495149 -20.2421875 23.19921875 C-23.2847825 20.71710177 -25.03437347 18.78544485 -25.55078125 14.84375 C-25.78092569 9.78754638 -25.86859457 6.16439042 -22.5546875 2.13671875 C-15.90109746 -4.34626642 -7.85147024 -4.38758631 0 0 Z " fill="#F4954E" transform="translate(46.2421875,2.80078125)"/>
</svg>
