<?xml version="1.0" encoding="UTF-8"?>
<svg version="1.1" xmlns="http://www.w3.org/2000/svg" width="79" height="92">
<path d="M0 0 C1.49809772 1.98564431 2.98312619 3.9763951 4.4296875 6 C9.4845897 12.99489169 14.74623028 17.26677674 23 20 C26.54395481 20.46759347 29.994676 20.42875784 33.5625 20.3125 C34.90344727 20.29799805 34.90344727 20.29799805 36.27148438 20.28320312 C40.36303568 20.2143621 44.27460592 19.98951747 48.30859375 19.296875 C52.54320951 18.95631331 54.04109755 19.58352472 57.5 21.9375 C58.3559375 22.50339844 59.211875 23.06929687 60.09375 23.65234375 C61.03734375 24.31943359 61.03734375 24.31943359 62 25 C61.10087891 25.67095703 61.10087891 25.67095703 60.18359375 26.35546875 C58.46038356 27.65327105 56.75753606 28.97810991 55.0625 30.3125 C50.50917172 32.88527611 46.39667247 31.54209115 41.4765625 30.59765625 C31.78801984 28.93209779 21.94050339 28.86445758 13.66015625 34.62890625 C8.00722231 39.2848169 4.37390512 44.54327177 1 51 C-0.33895632 49.33784732 -1.67130142 47.67036393 -3 46 C-3.598125 45.319375 -4.19625 44.63875 -4.8125 43.9375 C-6 42 -6 42 -5.7890625 40.078125 C-4.82361831 37.53547001 -3.66558252 36.51332973 -1.5625 34.8125 C-0.94503906 34.30332031 -0.32757812 33.79414062 0.30859375 33.26953125 C2 32 2 32 4 31 C-1.27220108 31.4467967 -4.54395104 31.98561394 -9 35 C-9.66 35 -10.32 35 -11 35 C-12.5078125 32.8125 -12.5078125 32.8125 -14.125 30 C-14.66382813 29.071875 -15.20265625 28.14375 -15.7578125 27.1875 C-16.37269531 26.1046875 -16.37269531 26.1046875 -17 25 C-15.02 22.03 -13.04 19.06 -11 16 C-8.525 16.99 -8.525 16.99 -6 18 C-2.3120723 19.35474895 0.02070903 20 4 20 C3.44570313 19.59007813 2.89140625 19.18015625 2.3203125 18.7578125 C1.59585937 18.21898438 0.87140625 17.68015625 0.125 17.125 C-0.59429688 16.59132813 -1.31359375 16.05765625 -2.0546875 15.5078125 C-4 14 -4 14 -6 12 C-5.85884889 7.05971108 -2.9187003 3.7372288 0 0 Z " fill="#F4954E" transform="translate(17,21)"/>
<path d="M0 0 C3.93666497 4.02613463 6.52645179 8.12992142 7 13.8125 C6.9175 14.4725 6.835 15.1325 6.75 15.8125 C6.31429687 15.43738281 5.87859375 15.06226562 5.4296875 14.67578125 C4.18221674 13.60382044 2.9320368 12.53500724 1.6796875 11.46875 C0.50630951 10.46164015 -0.65790403 9.44354158 -1.8046875 8.40625 C-5.85773088 4.81328181 -9.91860142 1.95810308 -15.484375 1.71484375 C-20.68656082 2.07271224 -24.2043384 3.35888644 -28.25 6.8125 C-31.01237892 11.23987443 -30.78304984 15.75262686 -30.25 20.8125 C-28.99024675 23.8359078 -28.06021593 25.22579191 -25.4375 27.125 C-21.74379722 28.28587802 -18.56583316 28.31038282 -14.9375 26.9375 C-13.0910805 25.90811011 -13.0910805 25.90811011 -12.25 23.8125 C-12.210008 21.81289988 -12.20653201 19.81202758 -12.25 17.8125 C-13.24 18.4725 -14.23 19.1325 -15.25 19.8125 C-18.57240324 19.4883631 -19.85776303 19.20473697 -22.25 16.8125 C-22.57339354 13.77260077 -22.70670212 11.66881647 -21.25 8.9375 C-18.02788992 7.12506308 -14.79589953 7.16967611 -11.25 7.8125 C-8.4399654 9.60613911 -6.74059532 10.83130935 -5.25 13.8125 C-4.72342127 19.09555214 -4.60808878 23.48112857 -6.9375 28.3125 C-9.9888872 31.61129698 -12.5925913 33.53817028 -17.08203125 34.28125 C-24.07777578 34.35459988 -28.9869726 33.65236942 -34.25 28.8125 C-38.21418364 23.56954744 -38.86329055 18.28743288 -38.25 11.8125 C-37.08586611 5.7007971 -34.16632957 2.06959231 -29.35546875 -1.77734375 C-20.01687643 -8.03194825 -8.7762817 -5.90711268 0 0 Z " fill="#F4954E" transform="translate(63.25,58.1875)"/>
<path d="M0 0 C3.65068088 3.05638399 5.41389904 5.0105255 6.00390625 9.83984375 C6.19562731 14.44733372 6.22106434 17.36072611 3.8125 21.375 C1.00997456 23.84781656 0.11051977 24.2186652 -3.6875 24.5 C-7.3125 24.25 -7.3125 24.25 -9.75 23.125 C-11.3125 21.25 -11.3125 21.25 -11.8125 18.25 C-11.3125 15.25 -11.3125 15.25 -9.625 13.3125 C-6.72540937 11.98025566 -5.30567984 12.27923897 -2.3125 13.25 C-1.9825 13.58 -1.6525 13.91 -1.3125 14.25 C-0.91422592 10.05981614 -0.91422592 10.05981614 -2.6875 6.4375 C-5.96897575 4.03949849 -8.27286389 3.9331658 -12.3125 4.25 C-16.11598966 5.97885894 -17.75548744 7.41628909 -19.3125 11.25 C-20.08983802 16.80241442 -19.6347998 21.59878029 -16.3125 26.25 C-12.0952333 29.33580491 -8.05511737 29.83233871 -2.9609375 29.6640625 C4.97896601 28.42272065 11.59629597 23.20123009 17.6875 18.25 C14.2918283 30.0576766 14.2918283 30.0576766 8.79296875 33.40234375 C1.35340137 37.28085661 -5.66067266 38.43674926 -13.875 36.25 C-20.15398272 33.95784541 -23.92260605 29.15064823 -26.75 23.25 C-28.0462002 16.33693227 -27.74132324 10.45782918 -24.3125 4.25 C-17.58799351 -2.858764 -8.63232245 -4.56047224 0 0 Z " fill="#F4954E" transform="translate(52.3125,2.75)"/>
</svg>
