<?xml version="1.0" encoding="UTF-8"?>
<svg version="1.1" xmlns="http://www.w3.org/2000/svg" width="721" height="215">
<path d="M0 0 C3.96 0 7.92 0 12 0 C12 0.66 12 1.32 12 2 C14.64 2 17.28 2 20 2 C20 2.66 20 3.32 20 4 C20.66 4 21.32 4 22 4 C22 4.66 22 5.32 22 6 C23.32 6 24.64 6 26 6 C26 6.66 26 7.32 26 8 C26.66 8 27.32 8 28 8 C28 8.66 28 9.32 28 10 C28.66 10 29.32 10 30 10 C30 10.66 30 11.32 30 12 C30.66 12 31.32 12 32 12 C32 13.32 32 14.64 32 16 C32.66 16 33.32 16 34 16 C34 17.32 34 18.64 34 20 C34.66 20 35.32 20 36 20 C36 21.32 36 22.64 36 24 C36.66 24 37.32 24 38 24 C38 25.32 38 26.64 38 28 C38.66 28 39.32 28 40 28 C40 28.66 40 29.32 40 30 C40.66 30 41.32 30 42 30 C42 29.34 42 28.68 42 28 C42.66 28 43.32 28 44 28 C44 27.34 44 26.68 44 26 C44.66 26 45.32 26 46 26 C46 25.34 46 24.68 46 24 C47.32 24 48.64 24 50 24 C50 23.34 50 22.68 50 22 C51.32 22 52.64 22 54 22 C54 21.34 54 20.68 54 20 C55.98 20 57.96 20 60 20 C60 19.34 60 18.68 60 18 C65.28 18 70.56 18 76 18 C76 18.66 76 19.32 76 20 C77.98 20 79.96 20 82 20 C82 20.66 82 21.32 82 22 C83.32 22 84.64 22 86 22 C86 22.66 86 23.32 86 24 C86.66 24 87.32 24 88 24 C88 24.66 88 25.32 88 26 C88.66 26 89.32 26 90 26 C90 26.66 90 27.32 90 28 C90.66 28 91.32 28 92 28 C92 28.66 92 29.32 92 30 C92.66 30 93.32 30 94 30 C94 31.32 94 32.64 94 34 C94.66 34 95.32 34 96 34 C96 35.98 96 37.96 96 40 C96.66 40 97.32 40 98 40 C98 42.64 98 45.28 98 48 C101.96 48 105.92 48 110 48 C110 48.66 110 49.32 110 50 C112.64 50 115.28 50 118 50 C118 50.66 118 51.32 118 52 C119.98 52 121.96 52 124 52 C124 52.66 124 53.32 124 54 C124.66 54 125.32 54 126 54 C126 54.66 126 55.32 126 56 C127.32 56 128.64 56 130 56 C130 57.32 130 58.64 130 60 C130.66 60 131.32 60 132 60 C132 60.66 132 61.32 132 62 C132.66 62 133.32 62 134 62 C134 62.66 134 63.32 134 64 C134.66 64 135.32 64 136 64 C136 64.66 136 65.32 136 66 C145.9 66 155.8 66 166 66 C166 66.66 166 67.32 166 68 C168.64 68 171.28 68 174 68 C174 68.66 174 69.32 174 70 C178.62 70 183.24 70 188 70 C188 69.34 188 68.68 188 68 C190.64 68 193.28 68 196 68 C196 67.34 196 66.68 196 66 C227.68 66 259.36 66 292 66 C292 66.66 292 67.32 292 68 C293.32 68 294.64 68 296 68 C296 68.66 296 69.32 296 70 C297.32 70 298.64 70 300 70 C300 70.66 300 71.32 300 72 C300.66 72 301.32 72 302 72 C302 72.66 302 73.32 302 74 C303.32 74 304.64 74 306 74 C306 75.32 306 76.64 306 78 C306.66 78 307.32 78 308 78 C308 78.66 308 79.32 308 80 C308.66 80 309.32 80 310 80 C310 81.98 310 83.96 310 86 C310.66 86 311.32 86 312 86 C312 87.98 312 89.96 312 92 C312.66 92 313.32 92 314 92 C314 97.94 314 103.88 314 110 C313.34 110 312.68 110 312 110 C312 111.98 312 113.96 312 116 C311.34 116 310.68 116 310 116 C310 117.32 310 118.64 310 120 C309.34 120 308.68 120 308 120 C308 120.66 308 121.32 308 122 C307.34 122 306.68 122 306 122 C306 122.66 306 123.32 306 124 C305.34 124 304.68 124 304 124 C304 124.66 304 125.32 304 126 C303.34 126 302.68 126 302 126 C302 126.66 302 127.32 302 128 C300.68 128 299.36 128 298 128 C298 128.66 298 129.32 298 130 C296.02 130 294.04 130 292 130 C292 130.66 292 131.32 292 132 C291.34 132 290.68 132 290 132 C290 132.66 290 133.32 290 134 C289.34 134 288.68 134 288 134 C288 141.26 288 148.52 288 156 C287.34 156 286.68 156 286 156 C286 156.66 286 157.32 286 158 C285.34 158 284.68 158 284 158 C284 158.66 284 159.32 284 160 C283.34 160 282.68 160 282 160 C282 161.32 282 162.64 282 164 C280.68 164 279.36 164 278 164 C278 164.66 278 165.32 278 166 C277.34 166 276.68 166 276 166 C276 166.66 276 167.32 276 168 C274.68 168 273.36 168 272 168 C272 168.66 272 169.32 272 170 C269.36 170 266.72 170 264 170 C264 170.66 264 171.32 264 172 C248.82 172 233.64 172 218 172 C218 172.66 218 173.32 218 174 C210.08 174 202.16 174 194 174 C194 173.34 194 172.68 194 172 C184.76 172 175.52 172 166 172 C166 171.34 166 170.68 166 170 C153.46 170 140.92 170 128 170 C128 170.66 128 171.32 128 172 C123.38 172 118.76 172 114 172 C114 172.66 114 173.32 114 174 C110.04 174 106.08 174 102 174 C102 174.66 102 175.32 102 176 C101.34 176 100.68 176 100 176 C100 177.32 100 178.64 100 180 C99.34 180 98.68 180 98 180 C98 181.32 98 182.64 98 184 C97.34 184 96.68 184 96 184 C96 184.66 96 185.32 96 186 C95.34 186 94.68 186 94 186 C94 186.66 94 187.32 94 188 C93.34 188 92.68 188 92 188 C92 188.66 92 189.32 92 190 C91.34 190 90.68 190 90 190 C90 190.66 90 191.32 90 192 C88.68 192 87.36 192 86 192 C86 192.66 86 193.32 86 194 C83.36 194 80.72 194 78 194 C78 194.66 78 195.32 78 196 C74.7 196 71.4 196 68 196 C68 195.34 68 194.68 68 194 C65.36 194 62.72 194 60 194 C60 193.34 60 192.68 60 192 C56.7 192 53.4 192 50 192 C50 192.66 50 193.32 50 194 C49.34 194 48.68 194 48 194 C48 194.66 48 195.32 48 196 C46.68 196 45.36 196 44 196 C44 196.66 44 197.32 44 198 C42.02 198 40.04 198 38 198 C38 198.66 38 199.32 38 200 C32.72 200 27.44 200 22 200 C22 199.34 22 198.68 22 198 C20.02 198 18.04 198 16 198 C16 197.34 16 196.68 16 196 C14.68 196 13.36 196 12 196 C12 195.34 12 194.68 12 194 C11.34 194 10.68 194 10 194 C10 193.34 10 192.68 10 192 C9.34 192 8.68 192 8 192 C8 191.34 8 190.68 8 190 C7.34 190 6.68 190 6 190 C6 188.68 6 187.36 6 186 C5.34 186 4.68 186 4 186 C4 184.68 4 183.36 4 182 C3.34 182 2.68 182 2 182 C2 181.34 2 180.68 2 180 C1.34 180 0.68 180 0 180 C0 179.34 0 178.68 0 178 C-0.66 178 -1.32 178 -2 178 C-2 177.34 -2 176.68 -2 176 C-5.96 176 -9.92 176 -14 176 C-14 175.34 -14 174.68 -14 174 C-21.26 174 -28.52 174 -36 174 C-36 173.34 -36 172.68 -36 172 C-37.98 172 -39.96 172 -42 172 C-42 171.34 -42 170.68 -42 170 C-43.98 170 -45.96 170 -48 170 C-48 169.34 -48 168.68 -48 168 C-49.32 168 -50.64 168 -52 168 C-52 167.34 -52 166.68 -52 166 C-53.98 166 -55.96 166 -58 166 C-58 166.66 -58 167.32 -58 168 C-59.98 168 -61.96 168 -64 168 C-64 168.66 -64 169.32 -64 170 C-65.32 170 -66.64 170 -68 170 C-68 170.66 -68 171.32 -68 172 C-69.98 172 -71.96 172 -74 172 C-74 172.66 -74 173.32 -74 174 C-82.58 174 -91.16 174 -100 174 C-100 173.34 -100 172.68 -100 172 C-102.64 172 -105.28 172 -108 172 C-108 171.34 -108 170.68 -108 170 C-125.16 170 -142.32 170 -160 170 C-160 169.34 -160 168.68 -160 168 C-164.62 168 -169.24 168 -174 168 C-174 168.66 -174 169.32 -174 170 C-181.26 170 -188.52 170 -196 170 C-196 170.66 -196 171.32 -196 172 C-199.3 172 -202.6 172 -206 172 C-206 172.66 -206 173.32 -206 174 C-213.92 174 -221.84 174 -230 174 C-230 173.34 -230 172.68 -230 172 C-231.98 172 -233.96 172 -236 172 C-236 171.34 -236 170.68 -236 170 C-237.98 170 -239.96 170 -242 170 C-242 169.34 -242 168.68 -242 168 C-243.98 168 -245.96 168 -248 168 C-248 167.34 -248 166.68 -248 166 C-249.32 166 -250.64 166 -252 166 C-252 166.66 -252 167.32 -252 168 C-254.64 168 -257.28 168 -260 168 C-260 168.66 -260 169.32 -260 170 C-266.6 170 -273.2 170 -280 170 C-280 169.34 -280 168.68 -280 168 C-282.64 168 -285.28 168 -288 168 C-288 168.66 -288 169.32 -288 170 C-290.64 170 -293.28 170 -296 170 C-296 170.66 -296 171.32 -296 172 C-297.98 172 -299.96 172 -302 172 C-302 172.66 -302 173.32 -302 174 C-309.92 174 -317.84 174 -326 174 C-326 173.34 -326 172.68 -326 172 C-327.98 172 -329.96 172 -332 172 C-332 171.34 -332 170.68 -332 170 C-333.98 170 -335.96 170 -338 170 C-338 169.34 -338 168.68 -338 168 C-339.32 168 -340.64 168 -342 168 C-342 167.34 -342 166.68 -342 166 C-343.32 166 -344.64 166 -346 166 C-346 166.66 -346 167.32 -346 168 C-348.64 168 -351.28 168 -354 168 C-354 168.66 -354 169.32 -354 170 C-359.28 170 -364.56 170 -370 170 C-370 169.34 -370 168.68 -370 168 C-372.64 168 -375.28 168 -378 168 C-378 167.34 -378 166.68 -378 166 C-378.66 166 -379.32 166 -380 166 C-380 165.34 -380 164.68 -380 164 C-381.32 164 -382.64 164 -384 164 C-384 163.34 -384 162.68 -384 162 C-384.66 162 -385.32 162 -386 162 C-386 160.68 -386 159.36 -386 158 C-386.66 158 -387.32 158 -388 158 C-388 157.34 -388 156.68 -388 156 C-388.66 156 -389.32 156 -390 156 C-390 154.68 -390 153.36 -390 152 C-390.66 152 -391.32 152 -392 152 C-392 150.02 -392 148.04 -392 146 C-392.66 146 -393.32 146 -394 146 C-394 127.52 -394 109.04 -394 90 C-393.34 90 -392.68 90 -392 90 C-392 88.02 -392 86.04 -392 84 C-391.34 84 -390.68 84 -390 84 C-390 82.68 -390 81.36 -390 80 C-389.34 80 -388.68 80 -388 80 C-388 79.34 -388 78.68 -388 78 C-387.34 78 -386.68 78 -386 78 C-386 76.68 -386 75.36 -386 74 C-384.68 74 -383.36 74 -382 74 C-382 73.34 -382 72.68 -382 72 C-381.34 72 -380.68 72 -380 72 C-380 71.34 -380 70.68 -380 70 C-378.02 70 -376.04 70 -374 70 C-374 69.34 -374 68.68 -374 68 C-372.02 68 -370.04 68 -368 68 C-368 67.34 -368 66.68 -368 66 C-358.1 66 -348.2 66 -338 66 C-338 66.66 -338 67.32 -338 68 C-332.06 68 -326.12 68 -320 68 C-320 67.34 -320 66.68 -320 66 C-306.14 66 -292.28 66 -278 66 C-278 66.66 -278 67.32 -278 68 C-261.5 68 -245 68 -228 68 C-228 67.34 -228 66.68 -228 66 C-217.44 66 -206.88 66 -196 66 C-196 66.66 -196 67.32 -196 68 C-169.6 68 -143.2 68 -116 68 C-116 68.66 -116 69.32 -116 70 C-112.7 70 -109.4 70 -106 70 C-106 69.34 -106 68.68 -106 68 C-103.36 68 -100.72 68 -98 68 C-98 67.34 -98 66.68 -98 66 C-90.74 66 -83.48 66 -76 66 C-76 65.34 -76 64.68 -76 64 C-75.34 64 -74.68 64 -74 64 C-74 63.34 -74 62.68 -74 62 C-73.34 62 -72.68 62 -72 62 C-72 61.34 -72 60.68 -72 60 C-71.34 60 -70.68 60 -70 60 C-70 59.34 -70 58.68 -70 58 C-68.68 58 -67.36 58 -66 58 C-66 57.34 -66 56.68 -66 56 C-65.34 56 -64.68 56 -64 56 C-64 55.34 -64 54.68 -64 54 C-62.68 54 -61.36 54 -60 54 C-60 53.34 -60 52.68 -60 52 C-57.36 52 -54.72 52 -52 52 C-52 51.34 -52 50.68 -52 50 C-47.38 50 -42.76 50 -38 50 C-38 50.66 -38 51.32 -38 52 C-35.36 52 -32.72 52 -30 52 C-30 52.66 -30 53.32 -30 54 C-27.36 54 -24.72 54 -22 54 C-22 50.7 -22 47.4 -22 44 C-22.66 44 -23.32 44 -24 44 C-24 38.72 -24 33.44 -24 28 C-23.34 28 -22.68 28 -22 28 C-22 25.36 -22 22.72 -22 20 C-21.34 20 -20.68 20 -20 20 C-20 18.02 -20 16.04 -20 14 C-19.34 14 -18.68 14 -18 14 C-18 13.34 -18 12.68 -18 12 C-17.34 12 -16.68 12 -16 12 C-16 10.68 -16 9.36 -16 8 C-14.68 8 -13.36 8 -12 8 C-12 7.34 -12 6.68 -12 6 C-11.34 6 -10.68 6 -10 6 C-10 5.34 -10 4.68 -10 4 C-8.68 4 -7.36 4 -6 4 C-6 3.34 -6 2.68 -6 2 C-4.02 2 -2.04 2 0 2 C0 1.34 0 0.68 0 0 Z " fill="#000000" transform="translate(401,7)"/>
<path d="M0 0 C1.68535024 0.96817992 3.36021682 1.95650161 5 3 C5 3.66 5 4.32 5 5 C5.66 5 6.32 5 7 5 C7 5.66 7 6.32 7 7 C7.7425 7.226875 8.485 7.45375 9.25 7.6875 C14.46246185 10.17526588 16.74420098 14.87318405 19 20 C22.86490711 30.98447285 20.31531933 39.575097 16 50 C14.79258419 52.1811765 13.53019698 54.01074392 12 56 C11.34 56 10.68 56 10 56 C9.67 56.99 9.34 57.98 9 59 C5.67908998 60.70533217 3.81507216 61 0 61 C0 61.66 0 62.32 0 63 C-8.56258607 65.52199685 -16.888748 64.22705725 -25 61 C-26.68438392 60.42823665 -28.37186657 59.86551094 -30.0625 59.3125 C-31.375 58.875 -32.6875 58.4375 -34 58 C-34 57.34 -34 56.68 -34 56 C-34.639375 55.731875 -35.27875 55.46375 -35.9375 55.1875 C-38 54 -38 54 -39 51 C-39.66 51 -40.32 51 -41 51 C-48.18998018 37.81836967 -48.13358869 25.33625014 -45.125 10.8125 C-44.95145996 9.97412598 -44.77791992 9.13575195 -44.59912109 8.27197266 C-43.26243376 2.26243376 -43.26243376 2.26243376 -41 0 C-38.375 -0.125 -38.375 -0.125 -36 0 C-36.14953125 0.73992187 -36.2990625 1.47984375 -36.453125 2.2421875 C-37.22198704 7.52536807 -37.49109849 12.79541762 -37.75 18.125 C-37.81832031 19.18976563 -37.88664062 20.25453125 -37.95703125 21.3515625 C-38.37768372 30.23919423 -37.88311044 39.66510855 -32.3125 47 C-29.02783461 50.35820267 -25.29183995 52.20948396 -21 54 C-19.824375 54.61875 -19.824375 54.61875 -18.625 55.25 C-12.90663764 56.88381782 -7.14202401 56.85432909 -1.6875 54.375 C4.55948271 50.75501807 7.81328405 45.5614006 10.265625 38.91796875 C11.81976473 32.74274335 12.39347187 25.83874703 10.1875 19.76171875 C5.85066443 12.97035471 -2.25899794 8.64815111 -9.8203125 6.4765625 C-17.28033814 4.84551747 -21.32217951 6.25099567 -27.80078125 10.00390625 C-30 11 -30 11 -33 10 C-33.875 7.3125 -33.875 7.3125 -34 4 C-25.06689444 -5.35849154 -11.12349276 -5.60803916 0 0 Z " fill="#B44647" transform="translate(446,85)"/>
<path d="M0 0 C4.41661151 -0.05804281 8.83312496 -0.09361104 13.25 -0.125 C14.50425781 -0.14175781 15.75851562 -0.15851563 17.05078125 -0.17578125 C18.25605469 -0.18222656 19.46132813 -0.18867187 20.703125 -0.1953125 C21.81333008 -0.20578613 22.92353516 -0.21625977 24.06738281 -0.22705078 C26.93950942 -0.00468334 28.57223735 0.50718425 31 2 C31 2.66 31 3.32 31 4 C31.66 4 32.32 4 33 4 C35.018888 8.03777599 34.72306081 12.63224241 34 17 C31.06270942 22.15473812 27.58263069 25.06198831 22 27 C25.70303361 32.76548271 29.62695616 38.37410566 33.625 43.9375 C34.09204346 44.60015869 34.55908691 45.26281738 35.0402832 45.94555664 C38.23092549 50.41893378 38.23092549 50.41893378 43 53 C43 53.66 43 54.32 43 55 C41.43908834 55.10911227 39.87591508 55.18609398 38.3125 55.25 C37.44238281 55.29640625 36.57226562 55.3428125 35.67578125 55.390625 C31.42100778 54.76949019 29.2125844 52.57069625 26.62524414 49.21923828 C25.16585152 47.15094664 23.76235368 45.05473893 22.375 42.9375 C21.42741796 41.50716332 20.47699357 40.07870471 19.5234375 38.65234375 C19.11013184 38.02320068 18.69682617 37.39405762 18.27099609 36.74584961 C17.03248978 34.93947479 17.03248978 34.93947479 15.34228516 33.39672852 C14 32 14 32 14 30 C12.68 30 11.36 30 10 30 C10.1387881 33.60447434 10.28723935 37.20848712 10.4375 40.8125 C10.47681641 41.83666016 10.51613281 42.86082031 10.55664062 43.91601562 C10.61948242 45.39038086 10.61948242 45.39038086 10.68359375 46.89453125 C10.72025146 47.80050049 10.75690918 48.70646973 10.79467773 49.63989258 C10.9208205 52.15048782 10.9208205 52.15048782 12 55 C8.04 55 4.08 55 0 55 C0.16242187 53.68773437 0.32484375 52.37546875 0.4921875 51.0234375 C1.16298569 44.28938217 1.15013431 37.56468303 1.13037109 30.80566406 C1.12502708 28.63599607 1.13033739 26.4665366 1.13671875 24.296875 C1.14019804 16.1560389 0.85123961 8.10325814 0 0 Z " fill="#EDEDED" transform="translate(531,92)"/>
<path d="M0 0 C3.96 0 7.92 0 12 0 C11.84660156 0.96035156 11.69320312 1.92070313 11.53515625 2.91015625 C10.89288247 7.4060727 10.66053579 11.90466233 10.4375 16.4375 C10.293125 19.263125 10.14875 22.08875 10 25 C17.92 25 25.84 25 34 25 C33.855625 21.803125 33.71125 18.60625 33.5625 15.3125 C33.51939697 14.31387939 33.47629395 13.31525879 33.43188477 12.28637695 C33.3747229 11.08694458 33.3747229 11.08694458 33.31640625 9.86328125 C33.26141968 8.64572144 33.26141968 8.64572144 33.20532227 7.40356445 C33.00651602 4.54749273 33.00651602 4.54749273 32 0 C35.96 0 39.92 0 44 0 C44 18.15 44 36.3 44 55 C40.04 55 36.08 55 32 55 C32.33 54.01 32.66 53.02 33 52 C33.14835948 50.22833025 33.24770018 48.45232388 33.31640625 46.67578125 C33.35451416 45.74934814 33.39262207 44.82291504 33.43188477 43.8684082 C33.47498779 42.6949585 33.51809082 41.52150879 33.5625 40.3125 C33.706875 36.579375 33.85125 32.84625 34 29 C26.08 29 18.16 29 10 29 C10.144375 32.733125 10.28875 36.46625 10.4375 40.3125 C10.48060303 41.48594971 10.52370605 42.65939941 10.56811523 43.8684082 C10.60622314 44.79484131 10.64433105 45.72127441 10.68359375 46.67578125 C10.72025146 47.62364502 10.75690918 48.57150879 10.79467773 49.5480957 C10.91430187 52.136171 10.91430187 52.136171 12 55 C8.04 55 4.08 55 0 55 C0.33 53.35 0.66 51.7 1 50 C1.08514104 48.53390041 1.12779767 47.06476025 1.12939453 45.59619141 C1.13254669 44.75827057 1.13569885 43.92034973 1.13894653 43.05703735 C1.1369223 42.16423065 1.13489807 41.27142395 1.1328125 40.3515625 C1.13376923 39.42080902 1.13472595 38.49005554 1.13571167 37.53109741 C1.13639084 35.56597831 1.13455493 33.60085695 1.13037109 31.63574219 C1.12503127 28.64252626 1.13031879 25.64946121 1.13671875 22.65625 C1.13605769 20.74218717 1.13477594 18.82812444 1.1328125 16.9140625 C1.13483673 16.02530426 1.13686096 15.13654602 1.13894653 14.22085571 C1.12084979 9.37410732 0.8158617 4.77931298 0 0 Z " fill="#EBEBEB" transform="translate(205,92)"/>
<path d="M0 0 C2.97 0 5.94 0 9 0 C8.98428955 1.17506104 8.9685791 2.35012207 8.95239258 3.56079102 C8.89787724 7.94223104 8.86357159 12.32364137 8.83520508 16.70532227 C8.82016754 18.59762625 8.79973215 20.48989566 8.77368164 22.38208008 C8.73707601 25.11027586 8.7202231 27.83800871 8.70703125 30.56640625 C8.69154739 31.40522842 8.67606354 32.2440506 8.66011047 33.10829163 C8.6583883 39.19083376 9.43153806 44.35008578 13.84765625 48.90625 C18.0388382 51.03607023 22.44343898 50.68956858 27 50 C30.8838519 47.62213149 32.20536527 45.15392613 33.3125 40.875 C35.4176212 27.529326 34.03469927 13.3956602 33 0 C36.63 0 40.26 0 44 0 C43.99476318 1.49370117 43.98952637 2.98740234 43.98413086 4.52636719 C43.96603873 10.06509808 43.95455252 15.60382635 43.94506836 21.14257812 C43.9400378 23.54036905 43.93321267 25.93815691 43.92456055 28.3359375 C43.91243918 31.78125771 43.90675892 35.22653737 43.90234375 38.671875 C43.89718246 39.74491882 43.89202118 40.81796265 43.88670349 41.92352295 C43.88662796 42.92425842 43.88655243 43.9249939 43.88647461 44.95605469 C43.884254 45.83541687 43.88203339 46.71477905 43.87974548 47.62078857 C43.93839197 50.30112142 43.93839197 50.30112142 45 54 C41.7 54 38.4 54 35 54 C34.67 53.34 34.34 52.68 34 52 C31.03030982 52.41437537 28.38972218 52.83425608 25.62109375 54.01171875 C20.33674877 56.00417669 14.68475512 55.92399992 9.35546875 54.08984375 C3.50641676 51.15114396 3.50641676 51.15114396 1.91479492 47.53320312 C0.71823657 42.91174798 0.64491562 38.54500294 0.5859375 33.7890625 C0.56657135 32.82092621 0.5472052 31.85278992 0.5272522 30.85531616 C0.4677167 27.7786323 0.4211753 24.70191049 0.375 21.625 C0.33679627 19.53253623 0.29774315 17.44008778 0.2578125 15.34765625 C0.16203655 10.23189604 0.07790958 5.11606224 0 0 Z " fill="#EDEDED" transform="translate(475,93)"/>
<path d="M0 0 C28.94444444 0 28.94444444 0 33.3125 4.25 C36.46865573 9.35330019 35.43475756 16.26262569 35 22 C33.40039084 26.79882749 30.4236904 29.5976455 26 32 C21.27209292 32.58782124 16.73769826 32.41920645 12 32 C11.67 31.01 11.34 30.02 11 29 C11.67546875 28.91363281 12.3509375 28.82726562 13.046875 28.73828125 C13.93890625 28.59777344 14.8309375 28.45726563 15.75 28.3125 C16.63171875 28.18488281 17.5134375 28.05726562 18.421875 27.92578125 C21.9234988 26.66837997 23.09149232 25.16917331 25 22 C25.62850971 18.79354418 25.62850971 18.79354418 25.5 15.4375 C25.5103125 14.32246094 25.520625 13.20742187 25.53125 12.05859375 C25.18071073 9.0055991 25.18071073 9.0055991 23.65625 6.66015625 C20.63054798 4.76909249 18.85534173 4.6578277 15.33398438 4.39624023 C13.83853088 4.27949196 13.83853088 4.27949196 12.31286621 4.16038513 C11.54962036 4.10745804 10.78637451 4.05453094 10 4 C10.11766731 10.62040996 10.24249748 17.24065705 10.37231445 23.86083984 C10.41563314 26.11308732 10.45731042 28.36536699 10.49731445 30.61767578 C10.55509103 33.85459089 10.61876452 37.09134442 10.68359375 40.328125 C10.70030624 41.33554749 10.71701874 42.34296997 10.73423767 43.38092041 C10.75418289 44.32159363 10.77412811 45.26226685 10.79467773 46.23144531 C10.81022202 47.05751282 10.8257663 47.88358032 10.84178162 48.73468018 C10.95608567 51.31834148 10.95608567 51.31834148 12 55 C8.04 55 4.08 55 0 55 C0 36.85 0 18.7 0 0 Z " fill="#EBEBEB" transform="translate(25,92)"/>
<path d="M0 0 C1.02802734 0.00322266 2.05605469 0.00644531 3.11523438 0.00976562 C4.72301758 0.02233398 4.72301758 0.02233398 6.36328125 0.03515625 C7.44673828 0.03966797 8.53019531 0.04417969 9.64648438 0.04882812 C12.32294019 0.06061868 14.99936764 0.07855417 17.67578125 0.09765625 C17.67578125 4.38765625 17.67578125 8.67765625 17.67578125 13.09765625 C17.01578125 13.09765625 16.35578125 13.09765625 15.67578125 13.09765625 C15.07765625 12.14890625 14.47953125 11.20015625 13.86328125 10.22265625 C11.45096311 6.77648747 10.73808248 5.89245432 6.67578125 5.09765625 C3.30321522 5.20896206 0.0130135 5.61463579 -3.32421875 6.09765625 C-4.31421875 6.20078125 -5.30421875 6.30390625 -6.32421875 6.41015625 C-8.43509786 6.91493448 -8.43509786 6.91493448 -9.44921875 8.72265625 C-9.73796875 9.50640625 -10.02671875 10.29015625 -10.32421875 11.09765625 C-11.0821875 12.65806641 -11.0821875 12.65806641 -11.85546875 14.25 C-13.5241149 18.13979734 -13.78668632 21.83822111 -13.69921875 26.03515625 C-13.68906738 26.73809814 -13.67891602 27.44104004 -13.66845703 28.1652832 C-13.4918532 34.06508337 -13.09571172 39.09326471 -8.9296875 43.609375 C-3.76131751 48.17585887 0.32026491 49.54542759 7.0703125 49.42578125 C12.34361115 48.76167767 16.3373525 45.98994208 20.67578125 43.09765625 C20.13978 46.95686523 19.2583267 49.17926408 16.67578125 52.09765625 C9.15111732 56.57103444 1.74459239 57.34241743 -6.6328125 55.28515625 C-13.39301618 53.07523723 -17.82337292 50.81690815 -21.3125 44.48828125 C-25.22812099 35.23592586 -25.73518572 24.60900645 -22.32421875 15.09765625 C-19.04413052 8.49432073 -14.98127561 4.2771461 -8.32421875 1.09765625 C-5.26502487 0.07792496 -3.2000385 -0.01767977 0 0 Z " fill="#EAEAEA" transform="translate(599.32421875,91.90234375)"/>
<path d="M0 0 C1.02802734 0.00322266 2.05605469 0.00644531 3.11523438 0.00976562 C4.72301758 0.02233398 4.72301758 0.02233398 6.36328125 0.03515625 C7.44673828 0.03966797 8.53019531 0.04417969 9.64648438 0.04882812 C12.32294019 0.06061868 14.99936764 0.07855417 17.67578125 0.09765625 C17.67578125 4.38765625 17.67578125 8.67765625 17.67578125 13.09765625 C17.01578125 13.09765625 16.35578125 13.09765625 15.67578125 13.09765625 C15.26328125 12.33453125 14.85078125 11.57140625 14.42578125 10.78515625 C12.15273373 7.2944047 10.63970074 6.39493899 6.67578125 5.09765625 C0.32807145 4.83961927 -4.39721568 5.89167802 -9.32421875 10.09765625 C-13.56332713 14.33676463 -14.12786798 20.13414852 -14.69921875 25.84765625 C-14.504584 31.99081556 -12.76449267 39.07667543 -8.86328125 43.90625 C-4.11107942 47.97095055 0.09612168 49.54737677 6.2265625 49.42578125 C11.61528794 48.70384674 16.21043988 46.0745505 20.67578125 43.09765625 C20.14708495 46.90426963 19.36851744 49.30875091 16.67578125 52.09765625 C13.31023302 53.82357842 11.54758716 54.09765625 7.67578125 54.09765625 C7.67578125 54.75765625 7.67578125 55.41765625 7.67578125 56.09765625 C-1.27486926 56.8118039 -8.53306319 55.77471772 -16.32421875 51.09765625 C-18.66553876 49.0008741 -20.01278332 46.93909968 -21.32421875 44.09765625 C-21.63875 43.44023437 -21.95328125 42.7828125 -22.27734375 42.10546875 C-25.69394419 33.62608765 -25.65171213 23.58000062 -22.29296875 15.08984375 C-19.02489781 8.36921399 -15.01208494 4.4835634 -8.32421875 1.09765625 C-5.26502487 0.07792496 -3.2000385 -0.01767977 0 0 Z " fill="#EBEBEB" transform="translate(175.32421875,91.90234375)"/>
<path d="M0 0 C1.53237305 0.00966797 1.53237305 0.00966797 3.09570312 0.01953125 C4.15080078 0.03628906 5.20589844 0.05304688 6.29296875 0.0703125 C7.36740234 0.07933594 8.44183594 0.08835937 9.54882812 0.09765625 C12.19280427 0.12115826 14.83666535 0.15702733 17.48046875 0.1953125 C17.48046875 4.4853125 17.48046875 8.7753125 17.48046875 13.1953125 C13.48046875 9.1953125 13.48046875 9.1953125 12.02734375 7.49609375 C8.87123591 4.84209398 4.44293193 5.18930877 0.48046875 5.1953125 C-2.18332212 5.55016055 -3.99595873 6.14382395 -6.51953125 7.1953125 C-7.50953125 8.6803125 -7.50953125 8.6803125 -8.51953125 10.1953125 C-9.17953125 10.1953125 -9.83953125 10.1953125 -10.51953125 10.1953125 C-10.82890625 11.3296875 -11.13828125 12.4640625 -11.45703125 13.6328125 C-12.51953125 17.1953125 -12.51953125 17.1953125 -13.51953125 18.1953125 C-14.31702079 28.32735175 -13.92949324 37.31536318 -7.64453125 45.6953125 C-2.47780127 49.34241602 3.32006759 50.07090251 9.48046875 49.1953125 C12.32790837 48.13066135 14.86427693 46.73029442 17.48046875 45.1953125 C18.80958589 44.52027928 20.14185888 43.85131999 21.48046875 43.1953125 C21.15046875 44.8453125 20.82046875 46.4953125 20.48046875 48.1953125 C19.82046875 48.1953125 19.16046875 48.1953125 18.48046875 48.1953125 C18.10535156 49.11570312 18.10535156 49.11570312 17.72265625 50.0546875 C15.46543003 53.94449872 11.66497393 55.0161528 7.48046875 56.1953125 C0.43949526 57.02527181 -5.29888563 56.62301519 -11.51953125 53.1953125 C-12.42703125 52.7003125 -13.33453125 52.2053125 -14.26953125 51.6953125 C-19.4309857 48.25434287 -21.97709909 44.17785277 -23.51953125 38.1953125 C-24.61707379 29.14997613 -25.05866851 19.19641054 -20.14453125 11.2109375 C-14.66415284 4.41316044 -9.00088079 -0.1005685 0 0 Z " fill="#EBEBEB" transform="translate(305.51953125,91.8046875)"/>
<path d="M0 0 C0 2.97 0 5.94 0 9 C-0.66 9 -1.32 9 -2 9 C-2.44730469 8.52175781 -2.89460938 8.04351562 -3.35546875 7.55078125 C-6.28909469 4.78439289 -10.11272715 4.97355597 -14 5 C-17.42825684 5.8049517 -17.42825684 5.8049517 -20 7 C-21.09200812 11.82318857 -21.09200812 11.82318857 -19.91796875 16.48828125 C-17.5248414 19.62225454 -15.04697696 21.0580085 -11.625 23 C-5.91577414 26.25491497 -1.67029028 29.49456458 2 35 C2.80275644 40.38269317 2.76060417 44.69271158 0 49.4375 C-6.71481445 55.17307067 -11.88875268 56.59917679 -20.7890625 56.33984375 C-25.23070062 55.86974336 -28.87048007 54.67980472 -33 53 C-33 50.03 -33 47.06 -33 44 C-29.29896173 45.23367942 -27.73190399 47.26809601 -25 50 C-22.18772378 50.93742541 -20.41253156 51.13470844 -17.5 51.125 C-16.7265625 51.12757813 -15.953125 51.13015625 -15.15625 51.1328125 C-12.49970976 50.96918502 -10.53168548 50.35445699 -8.3125 48.875 C-6.20351132 45.86215903 -6.57511088 43.58120832 -7 40 C-9.80938679 33.61503002 -14.9104461 31.62641065 -21 29 C-21 28.34 -21 27.68 -21 27 C-21.8353125 26.690625 -21.8353125 26.690625 -22.6875 26.375 C-25.95794569 24.43041067 -28.2946249 22.39060798 -30 19 C-30.83008173 14.56630948 -30.95917906 10.27632925 -29.18359375 6.0625 C-22.61420234 -3.09344621 -9.70250152 -1.65148962 0 0 Z " fill="#EBEBEB" transform="translate(98,92)"/>
<path d="M0 0 C9.9 0 19.8 0 30 0 C30.33 2.97 30.66 5.94 31 9 C30.34 9 29.68 9 29 9 C29 8.34 29 7.68 29 7 C25.15156692 5.81968161 21.24108857 5.66788761 17.25 5.4375 C14.8575 5.293125 12.465 5.14875 10 5 C10 11.6 10 18.2 10 25 C20.395 24.505 20.395 24.505 31 24 C26.47321429 28.52678571 26.47321429 28.52678571 22.75 29.25 C22.04359375 29.39953125 21.3371875 29.5490625 20.609375 29.703125 C17.0942097 30.10305399 13.5378426 30 10 30 C10 37.26 10 44.52 10 52 C19.47820206 51.50634364 26.6100961 50.54453128 35 46 C34.25 52.75 34.25 52.75 32 55 C29.56255103 55.17488254 27.2406392 55.23177405 24.8046875 55.1953125 C24.09724396 55.1924826 23.38980042 55.18965271 22.66091919 55.18673706 C20.3987749 55.17553137 18.13702485 55.15042679 15.875 55.125 C14.34245363 55.11497067 12.80990106 55.10584474 11.27734375 55.09765625 C7.51807699 55.07559086 3.75910536 55.04105896 0 55 C0 54.01 0 53.02 0 52 C0.66 52 1.32 52 2 52 C1.88090607 46.20154265 1.75661004 40.40322759 1.62768555 34.60498047 C1.58462081 32.63626055 1.54292841 30.66751009 1.50268555 28.69873047 C1.44428626 25.85374784 1.38080028 23.00891503 1.31640625 20.1640625 C1.29969376 19.29697662 1.28298126 18.42989075 1.26576233 17.53652954 C1.12506376 11.61013939 0.59363002 5.93630021 0 0 Z " fill="#EEEEEE" transform="translate(629,92)"/>
<path d="M0 0 C1 1 1 1 1.09765625 3.06640625 C1.08605469 3.89011719 1.07445312 4.71382813 1.0625 5.5625 C1.05347656 6.38878906 1.04445313 7.21507813 1.03515625 8.06640625 C1.02355469 8.70449219 1.01195312 9.34257813 1 10 C0.34 9.67 -0.32 9.34 -1 9 C-1 8.34 -1 7.68 -1 7 C-6.23344596 5.25551801 -11.87957435 5.32146379 -17.125 7 C-18.053125 7.495 -18.053125 7.495 -19 8 C-19.77257552 11.58194103 -20.31153105 14.12771306 -19.0625 17.625 C-16.70631534 20.33818234 -14.33176105 21.81188787 -11.2578125 23.62109375 C-5.17322125 27.33711574 0.80362475 31.46827666 4 38 C4.8161075 42.17121614 3.8751699 44.6169923 1.8125 48.1875 C-0.3951932 51.4523984 -2.34745126 53.35635307 -6 55 C-6.75796875 55.34675781 -7.5159375 55.69351563 -8.296875 56.05078125 C-16.25620773 58.84574924 -24.4179782 57.03280872 -32 54 C-32 51.03 -32 48.06 -32 45 C-28.29896173 46.23367942 -26.73190399 48.26809601 -24 51 C-21.22947819 51.92350727 -19.43311242 52.16329585 -16.5625 52.1875 C-15.80066406 52.20167969 -15.03882813 52.21585938 -14.25390625 52.23046875 C-11.697168 51.96903451 -10.16113155 51.3811053 -8 50 C-5.64379563 46.46569344 -5.51008387 45.16428713 -6 41 C-8.52847893 35.48331869 -12.30766418 33.43382633 -17.38671875 30.58203125 C-21.68894162 27.97754655 -26.70412784 24.59174432 -29 20 C-29.12148305 18.37834248 -29.17543652 16.75115673 -29.1875 15.125 C-29.20167969 14.26132813 -29.21585937 13.39765625 -29.23046875 12.5078125 C-28.90422787 8.95786936 -28.06000139 6.8821161 -25.30078125 4.5859375 C-16.75292394 -0.62002668 -9.89241885 -1.54471525 0 0 Z " fill="#F0EFEF" transform="translate(388,91)"/>
<path d="M0 0 C9.01893287 -0.61962134 9.01893287 -0.61962134 12.375 1.5 C17.32526866 9.11579793 20.07401353 17.46187556 23 26 C25.2236068 24.0745356 25.2236068 24.0745356 26 21 C26.66 21 27.32 21 28 21 C28.12246094 20.43925781 28.24492187 19.87851563 28.37109375 19.30078125 C29.05462373 16.80016536 30.02012974 14.55991977 31.0625 12.1875 C32.85122272 7.82869915 33.40611824 4.67035982 33 0 C36.63 0 40.26 0 44 0 C42.76624156 4.93503376 40.54422809 8.05726314 37.46484375 11.96484375 C35.40617926 14.82501494 34.23398763 17.70936631 33 21 C32.34 21 31.68 21 31 21 C30.71125 22.051875 30.4225 23.10375 30.125 24.1875 C29 28 29 28 27.94189453 30.40698242 C26.91758677 33.22688203 26.76972865 35.31179921 26.8046875 38.30078125 C26.81113281 39.27724609 26.81757813 40.25371094 26.82421875 41.25976562 C26.84097656 42.26716797 26.85773438 43.27457031 26.875 44.3125 C26.88402344 45.33923828 26.89304688 46.36597656 26.90234375 47.42382812 C26.92583669 49.94931927 26.96170549 52.47468992 27 55 C23.04 55 19.08 55 15 55 C15.33 53.68 15.66 52.36 16 51 C16.68910351 42.60233408 17.02338763 33.63523598 13.734375 25.76953125 C12.68948121 23.25178186 12.34490582 20.69026541 12 18 C11.34 18 10.68 18 10 18 C9.62875 17.01 9.2575 16.02 8.875 15 C7.23812193 11.12815379 4.92757859 8.05917736 2.3046875 4.796875 C1 3 1 3 0 0 Z " fill="#E9E9E9" transform="translate(104,92)"/>
<path d="M0 0 C4.29 0 8.58 0 13 0 C12.34 1.65 11.68 3.3 11 5 C10.71559891 7.39996058 10.71559891 7.39996058 10.77294922 9.88208008 C10.77310028 10.82267776 10.77325134 11.76327545 10.77340698 12.7323761 C10.78372955 13.7346373 10.79405212 14.7368985 10.8046875 15.76953125 C10.8075174 16.80567062 10.81034729 17.84181 10.81326294 18.90934753 C10.82443546 22.21051707 10.84953495 25.51141281 10.875 28.8125 C10.88503357 31.05403253 10.89415876 33.29556933 10.90234375 35.53710938 C10.92436522 41.0248326 10.95781379 46.51239674 11 52 C11.66 52.33 12.32 52.66 13 53 C13 53.66 13 54.32 13 55 C8.71 55 4.42 55 0 55 C0.33 53.68 0.66 52.36 1 51 C1.08859439 49.46948446 1.12785687 47.93566467 1.12939453 46.40258789 C1.13254669 45.49807388 1.13569885 44.59355988 1.13894653 43.66163635 C1.1369223 42.69177292 1.13489807 41.72190948 1.1328125 40.72265625 C1.13376923 39.71915634 1.13472595 38.71565643 1.13571167 37.68174744 C1.13639168 35.56102435 1.13454985 33.44029916 1.13037109 31.31958008 C1.12502596 28.07824001 1.13031927 24.83703886 1.13671875 21.59570312 C1.13605783 19.53385386 1.13477637 17.47200468 1.1328125 15.41015625 C1.13483673 14.44231705 1.13686096 13.47447784 1.13894653 12.47731018 C1.13579437 11.56964401 1.13264221 10.66197784 1.12939453 9.72680664 C1.12859894 8.93278946 1.12780334 8.13877228 1.12698364 7.32069397 C1.02953586 4.53127143 1.02953586 4.53127143 0 0 Z " fill="#EFEFEF" transform="translate(260,92)"/>
<path d="M0 0 C2.97 0 5.94 0 9 0 C8.98428955 1.17506104 8.9685791 2.35012207 8.95239258 3.56079102 C8.89787724 7.94223104 8.86357159 12.32364137 8.83520508 16.70532227 C8.82016754 18.59762625 8.79973215 20.48989566 8.77368164 22.38208008 C8.73707601 25.11027586 8.7202231 27.83800871 8.70703125 30.56640625 C8.69154739 31.40522842 8.67606354 32.2440506 8.66011047 33.10829163 C8.6583835 39.2077809 9.4841125 44.25590147 13.765625 48.92578125 C16.85613341 50.4116026 19.340736 50.28977792 22.75 50.1875 C23.92046875 50.16042969 25.0909375 50.13335937 26.296875 50.10546875 C27.18890625 50.07066406 28.0809375 50.03585938 29 50 C29.33 50.66 29.66 51.32 30 52 C24.05027152 55.17318852 18.70679074 55.99429345 12 55 C8.58989853 53.81783149 5.63478538 52.49001695 3 50 C0.64808594 44.65382684 0.65705288 39.52374003 0.5859375 33.7890625 C0.56657135 32.82092621 0.5472052 31.85278992 0.5272522 30.85531616 C0.4677167 27.7786323 0.4211753 24.70191049 0.375 21.625 C0.33679627 19.53253623 0.29774315 17.44008778 0.2578125 15.34765625 C0.16203655 10.23189604 0.07790958 5.11606224 0 0 Z " fill="#F8F8F8" transform="translate(475,93)"/>
<path d="M0 0 C2.875 -0.125 2.875 -0.125 6 0 C8.98249708 2.98249708 8.84361075 6.56803305 9.3671875 10.59375 C9.61568051 12.3646121 9.86438545 14.13544447 10.11328125 15.90625 C10.49473057 18.69214877 10.87212856 21.47851542 11.24462891 24.265625 C12.84130974 37.63841158 12.84130974 37.63841158 17.33251953 50.24023438 C18 52 18 52 17 55 C12.62674393 53.87544844 10.66765383 51.75306682 8.14819336 48.08032227 C6.16509221 44.48729549 5.54491448 40.76436399 4.875 36.75 C4.71741211 35.88608643 4.55982422 35.02217285 4.39746094 34.13208008 C3.9110296 31.42452462 3.45311195 28.71331232 3 26 C2.84756836 25.11940918 2.69513672 24.23881836 2.53808594 23.33154297 C2.09808958 20.78517096 1.67024175 18.23720204 1.25 15.6875 C1.12222168 14.91825195 0.99444336 14.14900391 0.86279297 13.35644531 C0.15725055 8.84534008 -0.12062987 4.56584055 0 0 Z " fill="#B14443" transform="translate(397,24)"/>
<path d="M0 0 C0.495 1.98 0.495 1.98 1 4 C-0.07378906 4.72445312 -1.14757812 5.44890625 -2.25390625 6.1953125 C-3.69025454 7.17165382 -5.12644398 8.14822885 -6.5625 9.125 C-7.26697266 9.599375 -7.97144531 10.07375 -8.69726562 10.5625 C-14.17877676 14.30104216 -19.30332061 18.30332061 -24 23 C-24 21.68 -24 20.36 -24 19 C-26.97 19 -29.94 19 -33 19 C-32.67 19.66 -32.34 20.32 -32 21 C-31.91294854 23.98970289 -31.88449855 26.95584955 -31.90234375 29.9453125 C-31.9037587 30.8303244 -31.90517365 31.7153363 -31.90663147 32.62716675 C-31.9122386 35.45981191 -31.92479229 38.29237864 -31.9375 41.125 C-31.94251408 43.04296761 -31.94707715 44.96093646 -31.95117188 46.87890625 C-31.96221034 51.58596782 -31.97947975 56.2929706 -32 61 C-32.33 61 -32.66 61 -33 61 C-33.33 51.43 -33.66 41.86 -34 32 C-36.475 32.495 -36.475 32.495 -39 33 C-39.97310703 29.86003256 -40.16934536 28.40845624 -38.890625 25.32421875 C-38.34921875 24.45410156 -37.8078125 23.58398438 -37.25 22.6875 C-36.71890625 21.80449219 -36.1878125 20.92148438 -35.640625 20.01171875 C-34.82851563 19.01591797 -34.82851563 19.01591797 -34 18 C-33.01 18 -32.02 18 -31 18 C-31 17.34 -31 16.68 -31 16 C-26.39802744 11.82611791 -21.60268068 8.69758699 -16 6 C-16 5.34 -16 4.68 -16 4 C-10.4174808 0.67424388 -6.50313209 -0.46450943 0 0 Z " fill="#B14949" transform="translate(508,74)"/>
<path d="M0 0 C2.625 0.6875 2.625 0.6875 5 2 C5.33 2.99 5.66 3.98 6 5 C4.8828125 6.98828125 4.8828125 6.98828125 3.125 9.3125 C0.49781139 12.88505867 -1.96900373 16.48804421 -4.30932617 20.25024414 C-8.34031554 26.72547333 -12.66482942 32.50491968 -18 38 C-19.32 37.67 -20.64 37.34 -22 37 C-22.68359375 35.33984375 -22.68359375 35.33984375 -23 33 C-21.84765625 30.44140625 -21.84765625 30.44140625 -20.0625 27.5625 C-19.42183594 26.51449219 -18.78117187 25.46648437 -18.12109375 24.38671875 C-17.42113281 23.26910156 -16.72117187 22.15148437 -16 21 C-15.26042768 19.79897115 -14.52215573 18.59714062 -13.78515625 17.39453125 C-12.39756895 15.13089956 -11.00245917 12.87268522 -9.6015625 10.6171875 C-8.03417528 8.13951818 -8.03417528 8.13951818 -7 6 C-6.34 6 -5.68 6 -5 6 C-4.731875 5.38125 -4.46375 4.7625 -4.1875 4.125 C-3 2 -3 2 0 0 Z " fill="#B44444" transform="translate(462,42)"/>
<path d="M0 0 C3.91969929 0.38364981 6.88323771 1.7034942 10.3125 3.51171875 C11.488125 4.10339844 12.66375 4.69507812 13.875 5.3046875 C16.40093593 6.78867486 18.30655598 8.07387483 20.4765625 9.94921875 C24.02451324 12.92050532 26.96182619 13.89899802 31.3125 15.32421875 C30.73781982 15.60458984 30.16313965 15.88496094 29.57104492 16.17382812 C27.32275285 17.28274459 27.32275285 17.28274459 25.2980957 18.55273438 C22.00708747 20.37901112 19.64223983 21.62390837 15.86865234 20.7734375 C13.29044084 19.61044271 10.9187145 18.28964134 8.5 16.82421875 C7.66791016 16.36273438 6.83582031 15.90125 5.97851562 15.42578125 C1.97858761 13.1547716 -1.78441059 10.97068686 -4.6875 7.32421875 C-5.0625 4.69921875 -5.0625 4.69921875 -4.6875 2.32421875 C-2.6875 0.32421875 -2.6875 0.32421875 0 0 Z " fill="#B74748" transform="translate(344.6875,74.67578125)"/>
<path d="M0 0 C2.9375 1.5625 2.9375 1.5625 5 4 C6.2689654 8.28275821 6.29423511 10.2963943 4.5625 14.4375 C4.046875 15.283125 3.53125 16.12875 3 17 C2.34 17 1.68 17 1 17 C1 17.66 1 18.32 1 19 C-1.85324437 20.42662219 -3.83454549 20.31033868 -7 20 C-10.61403689 17.94656995 -11.80245554 16.46380004 -13.4375 12.625 C-14.06491101 8.5816846 -13.81976774 6.63953548 -12 3 C-8.77709047 -0.71874176 -4.62714553 -0.8079143 0 0 Z " fill="#C9CBC9" transform="translate(680,90)"/>
<path d="M0 0 C9.26923077 0 9.26923077 0 14 3 C15.86356079 6.72712158 15.56549975 10.9420732 15 15 C13.1258346 18.62531608 10.92635083 20.69121639 7 22 C4.69 22 2.38 22 0 22 C0 14.74 0 7.48 0 0 Z " fill="#040404" transform="translate(541,96)"/>
<path d="M0 0 C0.33 0 0.66 0 1 0 C1 9.57 1 19.14 1 29 C2.98 29 4.96 29 7 29 C9.23828125 29.76953125 9.23828125 29.76953125 11.3125 30.8125 C15.7699436 32.94267288 20.28865099 34.5297918 25 36 C23.71855277 39.95112895 22.5657383 41.84698501 19 44 C14.6636899 44.78603808 10.08292469 44.96134985 6.01953125 43.0859375 C2.33720144 40.26736406 1.13293584 37.35868275 0 33 C-0.16163015 30.35865054 -0.23469585 27.83115344 -0.1953125 25.1953125 C-0.1924826 24.4713327 -0.18965271 23.74735291 -0.18673706 23.00143433 C-0.17562087 20.7091151 -0.15053312 18.41719937 -0.125 16.125 C-0.1149591 14.56250568 -0.10583519 13.00000518 -0.09765625 11.4375 C-0.07570973 7.62484662 -0.04124013 3.81249152 0 0 Z " fill="#AE5858" transform="translate(483,100)"/>
<path d="M0 0 C4.46666039 0.53082051 6.13834707 3.62874863 8.8984375 6.93359375 C10.90904888 9.60421017 12.40470531 12.23719533 13.6953125 15.3203125 C14.1078125 16.0009375 14.5203125 16.6815625 14.9453125 17.3828125 C15.95086734 19.98049585 15.42730371 21.68514414 14.6953125 24.3203125 C12.90625 24.13671875 12.90625 24.13671875 10.6953125 23.3203125 C8.984375 21.09765625 8.984375 21.09765625 7.3203125 18.2578125 C4.71757983 13.94423184 1.98656957 9.92318239 -1.140625 5.9765625 C-2.3046875 4.3203125 -2.3046875 4.3203125 -3.3046875 1.3203125 C-2.3046875 0.3203125 -2.3046875 0.3203125 0 0 Z " fill="#B24343" transform="translate(455.3046875,147.6796875)"/>
<path d="M0 0 C3.63 0 7.26 0 11 0 C9.76624156 4.93503376 7.54422809 8.05726314 4.46484375 11.96484375 C2.40617926 14.82501494 1.23398763 17.70936631 0 21 C-0.66 21 -1.32 21 -2 21 C-2.33 21.66 -2.66 22.32 -3 23 C-4.32 23 -5.64 23 -7 23 C-7 22.34 -7 21.68 -7 21 C-6.34 21 -5.68 21 -5 21 C-4.87753906 20.43925781 -4.75507813 19.87851563 -4.62890625 19.30078125 C-3.94537627 16.80016536 -2.97987026 14.55991977 -1.9375 12.1875 C-0.14877728 7.82869915 0.40611824 4.67035982 0 0 Z " fill="#E2E1E1" transform="translate(137,92)"/>
<path d="M0 0 C2.0625 0.4375 2.0625 0.4375 4 1 C4.62867565 9.71414306 2.91691481 16.80919903 0 25 C-1.32 25 -2.64 25 -4 25 C-4.36366239 16.52801318 -3.95201744 9.01480382 -1 1 C-0.67 0.67 -0.34 0.34 0 0 Z " fill="#B14343" transform="translate(426,153)"/>
<path d="M0 0 C4.47989964 1.81102326 6.01175932 3.01567909 9 7 C-3.87 7.99 -3.87 7.99 -17 9 C-17 7.68 -17 6.36 -17 5 C-13.73330327 2.82220218 -11.7749839 2.49237313 -7.9375 1.9375 C-3.83053342 1.40937789 -3.83053342 1.40937789 0 0 Z " fill="#B34A4B" transform="translate(372,122)"/>
<path d="M0 0 C2.625 2 2.625 2 4 4 C4.33 2.68 4.66 1.36 5 0 C6.65 0.66 8.3 1.32 10 2 C9.67 3.65 9.34 5.3 9 7 C4.73734107 8.18717043 1.7071764 7.73141856 -2.5625 6.6875 C-4.23505859 6.29111328 -4.23505859 6.29111328 -5.94140625 5.88671875 C-8.52077971 5.13893104 -10.66773026 4.30584296 -13 3 C-13 2.34 -13 1.68 -13 1 C-8.68284941 -0.4390502 -4.51173786 -0.56858235 0 0 Z " fill="#B94D4E" transform="translate(384,96)"/>
<path d="M0 0 C2.9375 2 2.9375 2 5 5 C5.11745427 7.88830721 4.63072433 10.1374819 4 13 C3.01 12.67 2.02 12.34 1 12 C-0.37001429 8.8033 0.1747596 6.30096158 1 3 C-1.64 2.67 -4.28 2.34 -7 2 C-7 5.63 -7 9.26 -7 13 C-6.01 13 -5.02 13 -4 13 C-3.67 11.68 -3.34 10.36 -3 9 C-2.71125 9.639375 -2.4225 10.27875 -2.125 10.9375 C-1.17176549 13.15206079 -1.17176549 13.15206079 1 14 C0 15 0 15 -2.8125 15.25 C-6.37204543 14.97081997 -7.62527063 14.63858819 -10 12 C-11.19308162 8.34121638 -11.32667744 6.70002308 -9.6875 3.1875 C-6.8817446 -0.44959033 -4.45840577 -0.52451833 0 0 Z " fill="#060606" transform="translate(679,92)"/>
<path d="M0 0 C0.99 0.33 1.98 0.66 3 1 C3 14.2 3 27.4 3 41 C2.67 41 2.34 41 2 41 C1.67 31.43 1.34 21.86 1 12 C-0.65 12.33 -2.3 12.66 -4 13 C-4.8125 11 -4.8125 11 -5 8 C-3.58832428 5.15031132 -1.85115239 2.58136476 0 0 Z " fill="#9C5B5C" transform="translate(473,94)"/>
<path d="M0 0 C-1.48918627 4.12666074 -3.80843004 5.2973363 -7.625 7.25 C-8.62789063 7.77078125 -9.63078125 8.2915625 -10.6640625 8.828125 C-11.43492187 9.21484375 -12.20578125 9.6015625 -13 10 C-13.33 8.68 -13.66 7.36 -14 6 C-9.27713509 1.71647136 -6.50442381 0 0 0 Z " fill="#A94444" transform="translate(406,143)"/>
<path d="M0 0 C0 0.66 0 1.32 0 2 C-0.62648438 2.09796875 -1.25296875 2.1959375 -1.8984375 2.296875 C-2.71570313 2.44640625 -3.53296875 2.5959375 -4.375 2.75 C-5.18710937 2.88921875 -5.99921875 3.0284375 -6.8359375 3.171875 C-9.1376172 3.81812327 -9.1376172 3.81812327 -10.296875 5.88671875 C-11.31469049 8.94581975 -10.91271494 10.93588556 -10 14 C-8.02329393 15.75422772 -8.02329393 15.75422772 -6 17 C-6 17.66 -6 18.32 -6 19 C-6.99 19 -7.98 19 -9 19 C-12.02611526 15.88488135 -13.78622122 13.38246505 -14 9 C-13.28624777 5.7556717 -12.55581791 3.64132836 -10.375 1.125 C-6.83707969 -0.55085699 -3.89178756 -0.19458938 0 0 Z " fill="#D3D2D2" transform="translate(680,90)"/>
<path d="M0 0 C9.9 0 19.8 0 30 0 C30.33 2.97 30.66 5.94 31 9 C30.34 9 29.68 9 29 9 C29 8.34 29 7.68 29 7 C28.34 6.67 27.68 6.34 27 6 C27.66 6 28.32 6 29 6 C29 4.35 29 2.7 29 1 C24.54140138 1.13835803 20.08320214 1.28694579 15.625 1.4375 C13.71847656 1.49647461 13.71847656 1.49647461 11.7734375 1.55664062 C10.56171875 1.59853516 9.35 1.64042969 8.1015625 1.68359375 C6.42054443 1.73858032 6.42054443 1.73858032 4.70556641 1.79467773 C2.03287229 1.82596013 2.03287229 1.82596013 0 3 C0 2.01 0 1.02 0 0 Z " fill="#ADACAC" transform="translate(629,92)"/>
<path d="M0 0 C6.93 2.97 6.93 2.97 14 6 C14 6.33 14 6.66 14 7 C12.41753293 7.08153933 10.83383727 7.13943557 9.25 7.1875 C7.92742187 7.23970703 7.92742187 7.23970703 6.578125 7.29296875 C3.47880755 6.94077359 2.15551344 6.24112963 0 4 C0 2.68 0 1.36 0 0 Z " fill="#050505" transform="translate(486,136)"/>
<path d="M0 0 C-0.33 1.65 -0.66 3.3 -1 5 C-3.97 4.505 -3.97 4.505 -7 4 C-7 2.68 -7 1.36 -7 0 C-3.98968256 -0.93423645 -3.13349732 -1.04449911 0 0 Z " fill="#8F8F8F" transform="translate(681,95)"/>
<path d="M0 0 C-1.125 1.5 -1.125 1.5 -3 3 C-6.1875 3.1875 -6.1875 3.1875 -9 3 C-8.67 2.01 -8.34 1.02 -8 0 C-4.71303767 -0.79953138 -3.28976808 -1.09658936 0 0 Z " fill="#BDBDBC" transform="translate(682,107)"/>
<path d="M0 0 C0.99 0.66 1.98 1.32 3 2 C3 2.66 3 3.32 3 4 C3.66 4.33 4.32 4.66 5 5 C4 6 4 6 0.9375 6.0625 C-0.031875 6.041875 -1.00125 6.02125 -2 6 C-2.33 5.34 -2.66 4.68 -3 4 C-2.01 4 -1.02 4 0 4 C0 2.68 0 1.36 0 0 Z " fill="#000000" transform="translate(675,101)"/>
<path d="M0 0 C0.66 0.33 1.32 0.66 2 1 C-0.31 3.31 -2.62 5.62 -5 8 C-5.33 7.34 -5.66 6.68 -6 6 C-4 4 -2 2 0 0 Z " fill="#D4D4D4" transform="translate(586,96)"/>
</svg>
